<?xml version="1.0" encoding="UTF-8"?>
<svg version="1.1" xmlns="http://www.w3.org/2000/svg" width="327" height="318">
<path d="M0 0 C107.91 0 215.82 0 327 0 C327 104.94 327 209.88 327 318 C219.09 318 111.18 318 0 318 C0 213.06 0 108.12 0 0 Z " fill="#FBFBFA" transform="translate(0,0)"/>
<path d="M0 0 C2.35200569 1.01753465 2.35200569 1.01753465 5.66674805 1.89355469 C10.98603591 3.41335122 16.21379421 5.41707777 21.16674805 7.89355469 C21.16674805 8.55355469 21.16674805 9.21355469 21.16674805 9.89355469 C21.96983398 10.11140625 22.77291992 10.32925781 23.6003418 10.55371094 C28.19711138 12.28064628 32.09874135 14.69935548 36.22924805 17.33105469 C37.48680908 18.13023315 37.48680908 18.13023315 38.76977539 18.94555664 C46.12166247 23.70717437 52.73727516 28.96074052 59.16674805 34.89355469 C60.3578418 35.96283203 60.3578418 35.96283203 61.57299805 37.05371094 C72.82967197 47.65638796 83.57214591 62.50743491 89.16674805 76.89355469 C89.8067876 78.33364368 90.45307355 79.77096628 91.10424805 81.20605469 C93.26196894 86.04857333 95.25204996 90.95028471 97.16674805 95.89355469 C97.88954956 97.6996521 97.88954956 97.6996521 98.62695312 99.54223633 C100.17807469 103.7007448 101.12045211 107.79275744 101.83081055 112.16699219 C102.02001572 113.32622696 102.02001572 113.32622696 102.21304321 114.50888062 C103.43914974 122.67728331 103.62125225 130.78783441 103.55786133 139.03515625 C103.54170644 141.52496684 103.55786493 144.013166 103.5769043 146.50292969 C103.59505312 160.01090078 101.75740846 172.74760823 97.79174805 185.70605469 C97.58114746 186.40907715 97.37054688 187.11209961 97.15356445 187.83642578 C95.31920507 193.77191778 92.89360334 199.31502327 90.16674805 204.89355469 C89.48612305 206.59511719 89.48612305 206.59511719 88.79174805 208.33105469 C82.75587226 221.5635516 74.06697855 233.02827923 64.2097168 243.63964844 C62.13447174 245.85484546 62.13447174 245.85484546 60.3894043 248.29199219 C57.43057071 251.7552315 54.04491966 254.34808255 50.41674805 257.08105469 C49.66232422 257.64985352 48.90790039 258.21865234 48.13061523 258.8046875 C26.84070639 274.65433572 1.29254955 288.37462631 -25.83325195 288.89355469 C-25.83325195 289.55355469 -25.83325195 290.21355469 -25.83325195 290.89355469 C-31.44325195 290.89355469 -37.05325195 290.89355469 -42.83325195 290.89355469 C-41.65852764 286.19465743 -40.3261013 285.14782143 -36.83325195 281.89355469 C-35.75181204 280.84226645 -34.67386003 279.78738189 -33.59887695 278.72949219 C-32.74447021 277.8907959 -32.74447021 277.8907959 -31.87280273 277.03515625 C-25.39718722 270.6425841 -19.4367184 264.07608017 -13.83325195 256.89355469 C-12.56271175 255.33081632 -11.2918773 253.76831713 -10.02075195 252.20605469 C-6.03568045 247.21481204 -2.2174842 242.10382702 1.60571289 236.98852539 C12.59908015 222.28071686 23.73803135 207.60309264 36.17456055 194.07324219 C38.67595479 191.3364226 41.07479085 188.51784732 43.46362305 185.68261719 C45.16674805 183.89355469 45.16674805 183.89355469 47.51831055 182.15527344 C50.97505913 179.20327133 53.26839057 175.83489554 55.79174805 172.08105469 C56.26870117 171.39462891 56.7456543 170.70820313 57.23706055 170.00097656 C62.35228525 162.71941752 62.35228525 162.71941752 64.12768555 154.23339844 C63.93432617 153.440625 63.7409668 152.64785156 63.54174805 151.83105469 C63.36385742 151.03570312 63.1859668 150.24035156 63.00268555 149.42089844 C62.22359903 146.78108515 62.22359903 146.78108515 60.6003418 144.17089844 C58.70890871 139.84688655 58.85290881 136.17775509 58.85424805 131.51855469 C58.48650911 117.05725432 53.83602535 103.79844727 43.6237793 93.27246094 C38.57416535 88.47358644 33.77393239 84.24970156 27.16674805 81.89355469 C26.35979492 81.59835938 25.5528418 81.30316406 24.72143555 80.99902344 C16.50525516 78.37607372 6.34373449 76.87648163 -1.89575195 80.14355469 C-13.70316512 87.17775827 -18.57146586 98.96540682 -21.9621582 111.90527344 C-23.31360484 118.28136376 -23.08412311 124.71884924 -23.02075195 131.20605469 C-23.02010742 132.44806641 -23.01946289 133.69007813 -23.01879883 134.96972656 C-22.98671713 141.76748147 -22.69839498 148.47390328 -22.07568359 155.24243164 C-20.31452806 174.50163403 -25.77945806 187.98438298 -38.02856445 202.80371094 C-47.74792985 214.29904932 -47.74792985 214.29904932 -53.83325195 218.89355469 C-54.49325195 218.89355469 -55.15325195 218.89355469 -55.83325195 218.89355469 C-55.83325195 219.55355469 -55.83325195 220.21355469 -55.83325195 220.89355469 C-57.54118776 222.40524653 -59.33061321 223.82492172 -61.14575195 225.20605469 C-61.71318115 225.63829346 -62.28061035 226.07053223 -62.86523438 226.51586914 C-68.76655164 230.95221508 -74.87882457 235.08454505 -81.03173828 239.16235352 C-87.96861522 243.81101692 -95.06938376 248.57816157 -99.20825195 256.01855469 C-99.66973633 256.82550781 -100.1312207 257.63246094 -100.60668945 258.46386719 C-102.81454866 262.83739721 -104.14256934 266.87022205 -104.95825195 271.70605469 C-105.12583008 272.681875 -105.2934082 273.65769531 -105.46606445 274.66308594 C-105.58723633 275.39914062 -105.7084082 276.13519531 -105.83325195 276.89355469 C-111.38605094 275.89176106 -116.12140534 274.03478577 -120.83325195 270.89355469 C-121.23730469 268.05883789 -121.23730469 268.05883789 -121.2668457 264.44433594 C-121.27804443 263.12747803 -121.28924316 261.81062012 -121.30078125 260.45385742 C-121.29279871 259.0379103 -121.28275451 257.62197344 -121.27075195 256.20605469 C-121.26870758 255.49925568 -121.26666321 254.79245667 -121.26455688 254.0642395 C-121.18314841 236.92763349 -118.75788642 223.04198093 -106.32592773 210.34570312 C-101.67316077 205.81926251 -96.63695094 201.69265405 -91.69799805 197.48535156 C-76.65437536 184.64371502 -63.88720595 169.44769638 -61.49731445 149.02246094 C-61.37277959 140.84052017 -63.42451288 135.40343162 -68.02075195 128.70605469 C-77.17806625 119.54874039 -89.66143977 114.73523722 -102.58325195 114.39355469 C-118.65659571 115.146683 -131.59579187 121.55107162 -142.83325195 132.89355469 C-144.00887695 134.28574219 -144.00887695 134.28574219 -145.20825195 135.70605469 C-148.1261046 138.13759856 -150.2800477 138.75811953 -153.89575195 139.83105469 C-158.66830304 141.30365584 -158.66830304 141.30365584 -162.39575195 144.58105469 C-166.05185162 153.00598001 -167.89789337 160.7278861 -168.0793457 169.95996094 C-168.11101752 171.33765366 -168.14301235 172.71533899 -168.17529297 174.09301758 C-168.19069122 174.80636261 -168.20608948 175.51970764 -168.22195435 176.25466919 C-168.52390635 189.87650034 -169.24647753 203.3520526 -170.83325195 216.89355469 C-174.64672852 216.13623047 -174.64672852 216.13623047 -176.32543945 213.95214844 C-182.83128447 201.62044785 -187.54935186 188.4378182 -190.83325195 174.89355469 C-191.13360352 173.65605469 -191.43395508 172.41855469 -191.7434082 171.14355469 C-196.27024761 150.09324053 -195.84033957 125.56659495 -189.83325195 104.89355469 C-189.60831055 104.11882812 -189.38336914 103.34410156 -189.15161133 102.54589844 C-182.41261374 80.00831422 -171.5704138 56.07936127 -153.83325195 39.89355469 C-153.17325195 39.89355469 -152.51325195 39.89355469 -151.83325195 39.89355469 C-151.56899414 39.30703125 -151.30473633 38.72050781 -151.0324707 38.11621094 C-144.8363053 26.63211285 -127.19519448 15.62341555 -115.83325195 9.89355469 C-114.51325195 9.89355469 -113.19325195 9.89355469 -111.83325195 9.89355469 C-111.83325195 9.23355469 -111.83325195 8.57355469 -111.83325195 7.89355469 C-100.96154087 2.20557226 -89.70559248 -1.18391919 -77.83325195 -4.10644531 C-77.09510254 -4.28868652 -76.35695313 -4.47092773 -75.59643555 -4.65869141 C-51.7867422 -10.23518682 -22.65715873 -9.6777155 0 0 Z " fill="#F78033" transform="translate(204.833251953125,18.1064453125)"/>
<path d="M0 0 C0.66 0 1.32 0 2 0 C2 0.66 2 1.32 2 2 C2.99 1.67 3.98 1.34 5 1 C6.04574631 4.13723892 6.06992517 6.28038753 6 9.5625 C5.81633753 13.43123651 5.81633753 13.43123651 7 17 C7.039992 18.99960012 7.04346799 21.00047242 7 23 C7.73605469 22.69964844 8.47210938 22.39929688 9.23046875 22.08984375 C10.20628906 21.70957031 11.18210937 21.32929688 12.1875 20.9375 C13.15042969 20.55464844 14.11335938 20.17179687 15.10546875 19.77734375 C18.24170783 18.93508791 19.9302515 19.0373611 23 20 C25.51873608 21.95901695 26.79556072 24.06803252 28 27 C28.311794 31.20806991 28.04335455 35.4114598 27.875 39.625 C27.85179687 40.76324219 27.82859375 41.90148437 27.8046875 43.07421875 C27.46602004 52.29232376 25.70804466 59.65303108 20 67 C19.26994271 68.32156356 18.5623985 69.65575404 17.875 71 C12.85645766 80.1505757 6.1204842 88.12712903 -0.95703125 95.74609375 C-3.03227631 97.96129077 -3.03227631 97.96129077 -4.77734375 100.3984375 C-7.73617734 103.86167681 -11.12182838 106.45452786 -14.75 109.1875 C-15.88163574 110.04069824 -15.88163574 110.04069824 -17.03613281 110.91113281 C-38.32604166 126.76078103 -63.8741985 140.48107162 -91 141 C-91 141.66 -91 142.32 -91 143 C-96.61 143 -102.22 143 -108 143 C-106.82527569 138.30110274 -105.49284935 137.25426675 -102 134 C-100.91856009 132.94871176 -99.84060807 131.8938272 -98.765625 130.8359375 C-98.19602051 130.27680664 -97.62641602 129.71767578 -97.03955078 129.14160156 C-90.56393526 122.74902941 -84.60346645 116.18252548 -79 109 C-77.72945979 107.43726164 -76.45862535 105.87476245 -75.1875 104.3125 C-71.20242849 99.32125736 -67.38423224 94.21027233 -63.56103516 89.0949707 C-52.5676679 74.38716217 -41.4287167 59.70953795 -28.9921875 46.1796875 C-26.49079325 43.44286791 -24.0919572 40.62429263 -21.703125 37.7890625 C-20 36 -20 36 -17.6484375 34.26171875 C-14.19168892 31.30971664 -11.89835747 27.94134086 -9.375 24.1875 C-8.89804687 23.50107422 -8.42109375 22.81464844 -7.9296875 22.10742188 C-5.05093157 17.88124825 -2.85629251 13.76531466 -1 9 C-0.34 9 0.32 9 1 9 C0.505 4.545 0.505 4.545 0 0 Z " fill="#F35532" transform="translate(270,166)"/>
<path d="M0 0 C0.66 0 1.32 0 2 0 C2.029729 0.95869995 2.029729 0.95869995 2.06005859 1.93676758 C2.15663497 4.89568633 2.26576391 7.85402259 2.375 10.8125 C2.4059375 11.81732422 2.436875 12.82214844 2.46875 13.85742188 C2.70108073 19.87865989 3.38465096 25.57830643 4.54589844 31.48803711 C7.07119587 45.45727651 4.01676417 56.93098914 -3.5 68.875 C-10.13543237 78.34878272 -17.72773504 87.99930711 -27 95 C-27.66 95 -28.32 95 -29 95 C-29 95.66 -29 96.32 -29 97 C-30.70793581 98.51169184 -32.49736125 99.93136703 -34.3125 101.3125 C-34.8799292 101.74473877 -35.4473584 102.17697754 -36.03198242 102.62231445 C-41.93329969 107.05866039 -48.04557261 111.19099036 -54.19848633 115.26879883 C-61.13536327 119.91746223 -68.2361318 124.68460688 -72.375 132.125 C-73.06722656 133.33542969 -73.06722656 133.33542969 -73.7734375 134.5703125 C-75.98129671 138.94384252 -77.30931739 142.97666736 -78.125 147.8125 C-78.29257813 148.78832031 -78.46015625 149.76414062 -78.6328125 150.76953125 C-78.75398438 151.50558594 -78.87515625 152.24164063 -79 153 C-84.55279899 151.99820637 -89.28815338 150.14123108 -94 147 C-94.40405273 144.1652832 -94.40405273 144.1652832 -94.43359375 140.55078125 C-94.44479248 139.23392334 -94.45599121 137.91706543 -94.4675293 136.56030273 C-94.45954675 135.14435561 -94.44950256 133.72841875 -94.4375 132.3125 C-94.43545563 131.60570099 -94.43341125 130.89890198 -94.43130493 130.17068481 C-94.34989646 113.0340788 -91.92463447 99.14842625 -79.49267578 86.45214844 C-74.83990881 81.92570782 -69.80369899 77.79909936 -64.86474609 73.59179688 C-50.68113858 61.48429216 -38.08670184 47.12829789 -35 28 C-34.7911258 24.8257805 -34.80768962 21.679121 -34.875 18.5 C-34.88402344 17.67757812 -34.89304688 16.85515625 -34.90234375 16.0078125 C-34.92563135 14.00507917 -34.96149041 12.00249846 -35 10 C-28.2421875 10.765625 -28.2421875 10.765625 -26.0625 12.875 C-25 15 -25 15 -25 18 C-24.34 18 -23.68 18 -23 18 C-22.505 20.97 -22.505 20.97 -22 24 C-21.0925 23.360625 -20.185 22.72125 -19.25 22.0625 C-13.65482486 18.51171578 -10.40000933 19.0399986 -4 20 C-4.04640625 19.14277344 -4.0928125 18.28554687 -4.140625 17.40234375 C-4.36471018 10.30364522 -4.28878955 5.76306095 0 0 Z " fill="#F35532" transform="translate(178,142)"/>
<path d="M0 0 C0.66 0 1.32 0 2 0 C2.66 3.96 3.32 7.92 4 12 C7.72159473 12 10.46315341 11.80842208 14 11 C14 11.66 14 12.32 14 13 C15.32 13 16.64 13 18 13 C18 10.03 18 7.06 18 4 C23.71271093 1.9337003 28.03654233 1.9993291 34 3 C34 3.99 34 4.98 34 6 C32.576875 6.0928125 32.576875 6.0928125 31.125 6.1875 C27.89866931 6.65619146 27.89866931 6.65619146 26.625 9.0625 C25.79931734 12.94320849 25.68408169 16.01942931 26 20 C27.41977909 22.22743787 27.41977909 22.22743787 29 24 C29 25.32 29 26.64 29 28 C30.32 28 31.64 28 33 28 C33.495 26.515 33.495 26.515 34 25 C36.83470803 22.79522708 38.19204286 21.91022698 41.8125 22.3125 C42.534375 22.539375 43.25625 22.76625 44 23 C44.75 24.75 44.75 24.75 45 27 C42.08941003 30.65943108 39.45047697 31.7067498 35 32.875 C31.07747544 34.10942753 29.31596513 34.66862193 26.4375 37.6875 C22.78140033 46.11242533 20.93535858 53.83433141 20.75390625 63.06640625 C20.72223444 64.44409897 20.6902396 65.8217843 20.65795898 67.19946289 C20.64256073 67.91280792 20.62716248 68.62615295 20.61129761 69.3611145 C20.3093456 82.98294565 19.58677442 96.45849791 18 110 C14.18652344 109.24267578 14.18652344 109.24267578 12.5078125 107.05859375 C5.99197352 94.7079498 1.34925897 81.5492749 -2 68 C-2.26707764 67.01410889 -2.26707764 67.01410889 -2.53955078 66.00830078 C-4.62454979 57.33105291 -4.39048311 48.49445406 -4.375 39.625 C-4.3764502 38.78249695 -4.37790039 37.9399939 -4.37939453 37.07196045 C-4.37696766 24.33482533 -3.54347982 12.30726473 0 0 Z " fill="#F35732" transform="translate(16,125)"/>
<path d="M0 0 C4.77699879 2.36104538 9.15159767 5.9168936 11 11 C12.2573127 18.12909261 10.51947314 23.25921143 6.84765625 29.37890625 C2.87977349 35.00776319 -1.28395623 39.8993427 -8 42 C-13.31754299 42.72581406 -17.57214038 43.04114764 -22 39.8125 C-27.0626108 32.69320356 -28.09914554 27.76263253 -27 19 C-24.48518621 11.60524993 -20.21847766 4.44131453 -13.1171875 0.73828125 C-8.73722581 -0.78904856 -4.53343251 -0.86505958 0 0 Z " fill="#FCF9F7" transform="translate(157,97)"/>
<path d="M0 0 C1.21236328 0.01353516 1.21236328 0.01353516 2.44921875 0.02734375 C3.37154297 0.04474609 3.37154297 0.04474609 4.3125 0.0625 C4.3125 0.7225 4.3125 1.3825 4.3125 2.0625 C5.055 2.31 5.7975 2.5575 6.5625 2.8125 C11.02027475 4.83876125 13.19154324 7.35367783 15.0625 11.8125 C16.52232074 16.01047099 16.54901176 19.64761389 16.3125 24.0625 C15.6525 24.0625 14.9925 24.0625 14.3125 24.0625 C14.23 24.7225 14.1475 25.3825 14.0625 26.0625 C12.62024858 31.83150568 10.05760873 37.32392949 5.3125 41.0625 C2.5625 42.3125 2.5625 42.3125 0.3125 43.0625 C0.3125 43.7225 0.3125 44.3825 0.3125 45.0625 C-8.29080923 45.92283092 -8.29080923 45.92283092 -12.0625 42.875 C-15.8318449 38.83641618 -17.6875 36.67375364 -17.6875 31.0625 C-18.3475 31.0625 -19.0075 31.0625 -19.6875 31.0625 C-20.53810938 21.29624414 -19.23517278 14.25192173 -13.6875 6.0625 C-9.73187753 1.63258227 -5.91227726 -0.08568518 0 0 Z " fill="#FCF8F6" transform="translate(226.6875,44.9375)"/>
<path d="M0 0 C2.82860556 2.1416585 3.87940031 3.309638 4.49609375 6.83984375 C4.47675781 7.86207031 4.45742187 8.88429688 4.4375 9.9375 C4.43621094 10.95714844 4.43492188 11.97679688 4.43359375 13.02734375 C3.94273814 16.39257909 3.01229215 18.27748708 1 21 C-2.78435205 23.52290137 -4.51464241 23.60818408 -9 23 C-11.71260226 21.44232665 -13.43959081 19.71134931 -15 17 C-15.92409546 12.68250483 -15.48883457 9.18349423 -13.8125 5.125 C-9.80858531 0.43075519 -6.13474068 -0.78078518 0 0 Z " fill="#FCF6F3" transform="translate(119,97)"/>
<path d="M0 0 C3 1.875 3 1.875 5 5 C5.74122746 9.4117288 5.99314685 13.35234377 3.63671875 17.26171875 C1.55170933 19.47610823 -0.03009784 19.6789295 -3 20 C-3 20.66 -3 21.32 -3 22 C-10.22330097 22.60194175 -10.22330097 22.60194175 -13.5 20.0625 C-15.53759659 15.90240695 -15.92325379 12.54644302 -15 8 C-11.58256932 1.21558042 -7.58990298 -1.2190284 0 0 Z " fill="#FCF6F3" transform="translate(261,74)"/>
<path d="M0 0 C2 1.5 2 1.5 3 4 C3.6122375 10.32645417 2.78110354 14.55633945 -1.328125 19.64453125 C-4.02131516 21.82802888 -6.49590772 21.41640552 -9.8359375 21.26953125 C-12 21 -12 21 -14.5625 20.0625 C-16.97143324 16.60620448 -16.69327677 13.0556691 -16 9 C-12.06442022 1.40995328 -8.33902004 -0.92655778 0 0 Z " fill="#FCF6F2" transform="translate(278,97)"/>
<path d="M0 0 C3.76713697 2.88728412 5.73971669 5.80703484 6.75 10.4375 C5.72638216 15.29968475 3.77430267 18.72948828 0 22 C-3.88716785 22.73722149 -5.84075985 22.6266163 -9.3125 20.75 C-12.20205703 17.75342234 -12.91091344 15.80177903 -13.375 11.625 C-12.93060645 7.32919568 -11.70408706 5.32216411 -9 2 C-5.43961959 -0.37358694 -4.19103161 -0.73959381 0 0 Z " fill="#FCF4F1" transform="translate(90,103)"/>
<path d="M0 0 C3.5625 0.3125 3.5625 0.3125 5.5 1.375 C7.24227362 4.55208719 7.03802281 6.74607894 6.5625 10.3125 C4.82523281 13.73877695 2.71257708 16.459217 -0.375 18.75 C-3.20878253 19.52284978 -5.5157092 19.62332881 -8.4375 19.3125 C-10.3125 18.1875 -10.3125 18.1875 -11.4375 16.3125 C-12.12598204 13.02308582 -11.91632009 11.09881923 -10.16015625 8.21484375 C-4.35635616 0.39603238 -4.35635616 0.39603238 0 0 Z " fill="#FCF5F1" transform="translate(280.4375,121.6875)"/>
<path d="M0 0 C2.24220506 1.62926582 2.92150263 2.50960245 3.36328125 5.26953125 C3.26547089 10.16757295 3.14219285 14.49012031 1 19 C-2.24153166 21.1610211 -3.23692901 21.64247553 -7 21 C-9.71104374 18.80185642 -10.83899355 17.09126597 -11.3515625 13.6171875 C-11.51446539 8.656054 -11.31336433 4.95054978 -8 1 C-5.20129973 -0.39935013 -3.09501208 -0.25265405 0 0 Z " fill="#FCF9F7" transform="translate(69,116)"/>
<path d="M0 0 C1.093125 0.103125 2.18625 0.20625 3.3125 0.3125 C3.6425 1.6325 3.9725 2.9525 4.3125 4.3125 C4.9725 4.3125 5.6325 4.3125 6.3125 4.3125 C6.39336147 6.10343191 6.45162702 7.89539628 6.5 9.6875 C6.53480469 10.68523437 6.56960937 11.68296875 6.60546875 12.7109375 C6.50878906 13.56945312 6.41210938 14.42796875 6.3125 15.3125 C2.60834707 17.78193529 0.69105495 17.78163089 -3.6875 17.3125 C-5.625 15.8125 -5.625 15.8125 -6.6875 13.3125 C-7.0962922 9.02018193 -7.05597752 6.35290713 -5.625 2.3125 C-3.6875 0.3125 -3.6875 0.3125 0 0 Z " fill="#FCEEE8" transform="translate(47.6875,131.6875)"/>
<path d="M0 0 C0.35030701 4.46641443 0.49325876 7.94914438 -1.4375 12.0625 C-4.73982466 14.55937962 -6.93582914 14.48520084 -10.9765625 14.37109375 C-13 14 -13 14 -15 12 C-15.63952286 7.98014203 -15.11717953 6.21092315 -13.125 2.625 C-9.56379225 -1.33877907 -4.91921873 -0.51580158 0 0 Z " fill="#FCF6F2" transform="translate(288,147)"/>
<path d="M0 0 C0.33 0.99 0.66 1.98 1 3 C0.21625 3.4125 -0.5675 3.825 -1.375 4.25 C-4.19563909 6.13042606 -4.77693762 6.94234406 -6 10 C-6.44811137 12.35564596 -6.44811137 12.35564596 -6.625 14.75 C-6.69976562 15.54921875 -6.77453125 16.3484375 -6.8515625 17.171875 C-6.90054688 17.77515625 -6.94953125 18.3784375 -7 19 C-7.66 18.67 -8.32 18.34 -9 18 C-9 17.34 -9 16.68 -9 16 C-9.66 16 -10.32 16 -11 16 C-11.43314094 12.91387083 -11.69047161 10.97993013 -11 8 C-7.95791806 4.27008136 -4.57248178 1.52416059 0 0 Z " fill="#F46233" transform="translate(111,95)"/>
<path d="M0 0 C0.66 0.33 1.32 0.66 2 1 C1.43490723 1.55461914 0.86981445 2.10923828 0.28759766 2.68066406 C-2.27184428 5.19851046 -4.82347264 7.72413455 -7.375 10.25 C-8.26445313 11.12269531 -9.15390625 11.99539062 -10.0703125 12.89453125 C-10.92109375 13.73886719 -11.771875 14.58320313 -12.6484375 15.453125 C-13.43395996 16.22817383 -14.21948242 17.00322266 -15.02880859 17.80175781 C-16.83611246 19.81723515 -17.94965361 21.52453574 -19 24 C-19.33 23.34 -19.66 22.68 -20 22 C-15.99998997 12.85711993 -7.70288595 6.08122575 0 0 Z " fill="#F57555" transform="translate(109,219)"/>
<path d="M0 0 C2.62187494 1.04874998 3.79371361 1.64931313 5.25 4.125 C5.4975 4.74375 5.745 5.3625 6 6 C6.66 6 7.32 6 8 6 C8.33 6.99 8.66 7.98 9 9 C7.25 10.125 7.25 10.125 5 11 C2.30066074 10.07451225 1.28813232 9.57626463 0 7 C-0.04022391 4.6670134 -0.04320247 2.33293334 0 0 Z " fill="#F4643A" transform="translate(130,132)"/>
<path d="M0 0 C1.16273437 -0.01417969 2.32546875 -0.02835938 3.5234375 -0.04296875 C6.625 0.1875 6.625 0.1875 9.625 2.1875 C9.625 2.8475 9.625 3.5075 9.625 4.1875 C7.16566009 4.07380789 4.7082091 3.94707349 2.25 3.8125 C1.55132812 3.7815625 0.85265625 3.750625 0.1328125 3.71875 C-5.1484375 3.4140625 -5.1484375 3.4140625 -7.375 1.1875 C-5.51059425 -0.67690575 -2.4925383 0.01375573 0 0 Z " fill="#F46633" transform="translate(105.375,128.8125)"/>
<path d="M0 0 C0.66 0.99 1.32 1.98 2 3 C0.3125 4.5625 0.3125 4.5625 -2 6 C-4.75 5.6875 -4.75 5.6875 -7 5 C-7.33 3.35 -7.66 1.7 -8 0 C-4.97786398 -0.97140086 -2.9812093 -1.19248372 0 0 Z " fill="#F45E33" transform="translate(71,138)"/>
<path d="M0 0 C0.33 0 0.66 0 1 0 C1.48230236 3.44980157 1.7114192 6.5736796 1 10 C-1.36456436 12.35937891 -3.94127906 13.7027746 -7 15 C-5.58192622 10.52761347 -3.88695626 6.28853694 -2 2 C-1.34 2 -0.68 2 0 2 C0 1.34 0 0.68 0 0 Z " fill="#F78549" transform="translate(243,67)"/>
<path d="M0 0 C0 0.33 0 0.66 0 1 C-0.60328125 1.07476562 -1.2065625 1.14953125 -1.828125 1.2265625 C-6.23237601 1.95113283 -8.41563675 2.35720043 -11.5 5.75 C-12.96485634 8.92385541 -13.66982044 11.53311466 -14 15 C-14.33 15 -14.66 15 -15 15 C-15.87977528 6.75617978 -15.87977528 6.75617978 -13.98046875 2.96484375 C-9.83598376 -1.86468009 -5.85914332 -1.43223503 0 0 Z " fill="#F7864A" transform="translate(260,73)"/>
<path d="M0 0 C7.1555306 -0.48512072 7.1555306 -0.48512072 10.9375 1.6875 C13.18903896 4.21195277 13.72253508 5.67042093 14 9 C13.01 9 12.02 9 11 9 C9.79679102 7.4715994 8.59469635 5.94225137 7.40625 4.40234375 C5.22565049 2.22780146 2.97750482 2.1384886 0 2 C0 1.34 0 0.68 0 0 Z " fill="#F4693A" transform="translate(84,101)"/>
<path d="M0 0 C1.24523437 0.01804687 2.49046875 0.03609375 3.7734375 0.0546875 C5.18496094 0.08949219 5.18496094 0.08949219 6.625 0.125 C6.625 0.455 6.625 0.785 6.625 1.125 C5.76777344 1.16238281 4.91054687 1.19976562 4.02734375 1.23828125 C-5.875399 1.80766105 -11.37477202 2.72475899 -18.375 10.125 C-19.035 10.125 -19.695 10.125 -20.375 10.125 C-18.87187867 6.29887297 -16.74698449 4.42408033 -13.375 2.125 C-8.78051768 0.24483721 -4.94400208 -0.09328306 0 0 Z " fill="#FAD6C1" transform="translate(214.375,95.875)"/>
<path d="M0 0 C0 3.3 0 6.6 0 10 C-1.32 10 -2.64 10 -4 10 C-4 7.03 -4 4.06 -4 1 C-2 0 -2 0 0 0 Z " fill="#F35B30" transform="translate(77,110)"/>
<path d="M0 0 C-1.45746236 3.34314819 -3.30984087 5.6078211 -5.875 8.1875 C-6.55304688 8.88230469 -7.23109375 9.57710937 -7.9296875 10.29296875 C-10.03086032 12.0254452 -11.34102145 12.60055703 -14 13 C-13.67 12.34 -13.34 11.68 -13 11 C-12.34 11 -11.68 11 -11 11 C-10.7421875 10.41734375 -10.484375 9.8346875 -10.21875 9.234375 C-8.90165983 6.8197097 -7.44911616 5.18259823 -5.5 3.25 C-4.8915625 2.63640625 -4.283125 2.0228125 -3.65625 1.390625 C-2 0 -2 0 0 0 Z " fill="#FADACC" transform="translate(71,143)"/>
<path d="M0 0 C0.99 0.33 1.98 0.66 3 1 C1.20963542 1.9765625 -0.58072917 2.953125 -2.37109375 3.9296875 C-4.16618315 4.91410024 -4.16618315 4.91410024 -5 7 C-6.32 7 -7.64 7 -9 7 C-9 5.68 -9 4.36 -9 3 C-7.88625 2.690625 -6.7725 2.38125 -5.625 2.0625 C-2.2054845 1.17673517 -2.2054845 1.17673517 0 0 Z " fill="#F6743C" transform="translate(54,146)"/>
<path d="M0 0 C1.32 0 2.64 0 4 0 C4.33 1.98 4.66 3.96 5 6 C3.35 6.33 1.7 6.66 0 7 C0 4.69 0 2.38 0 0 Z " fill="#F35B31" transform="translate(266,138)"/>
<path d="M0 0 C-1.40844718 3.21524305 -3.10344786 5.32183868 -5.625 7.75 C-6.57246094 8.67039062 -6.57246094 8.67039062 -7.5390625 9.609375 C-8.02117187 10.06828125 -8.50328125 10.5271875 -9 11 C-9 7.25983417 -8.0658409 6.54723807 -5.625 3.8125 C-4.99851562 3.09707031 -4.37203125 2.38164062 -3.7265625 1.64453125 C-2 0 -2 0 0 0 Z " fill="#FADBD1" transform="translate(115,264)"/>
<path d="M0 0 C0.66 0 1.32 0 2 0 C1.67 0.99 1.34 1.98 1 3 C0.34 3 -0.32 3 -1 3 C-1.33 6.96 -1.66 10.92 -2 15 C-2.33 15 -2.66 15 -3 15 C-3.57042254 4.11971831 -3.57042254 4.11971831 0 0 Z " fill="#FBD4C1" transform="translate(61,117)"/>
<path d="M0 0 C2.125 0.375 2.125 0.375 4 1 C3.01 1 2.02 1 1 1 C0.731875 1.61875 0.46375 2.2375 0.1875 2.875 C-1 5 -1 5 -4 7 C-2.92598892 4.08482708 -2.22189824 2.22189824 0 0 Z " fill="#F9CDBE" transform="translate(45,159)"/>
</svg>
